<svg height="512pt" viewBox="0 0 512 512" width="512pt" xmlns="http://www.w3.org/2000/svg"><path d="m512 256c0 141.386719-114.613281 256-256 256s-256-114.613281-256-256 114.613281-256 256-256 256 114.613281 256 256zm0 0" fill="#a65d4e"/><path d="m512 256c0-3.128906-.074219-6.242188-.1875-9.34375l-123.726562-123.722656-253.886719 275.621094 113.289062 113.289062c2.828125.09375 5.664063.15625 8.511719.15625 141.386719 0 256-114.613281 256-256zm0 0" fill="#784132"/><path d="m443.5 256c0 103.554688-83.945312 187.5-187.5 187.5s-187.5-83.945312-187.5-187.5 83.945312-187.5 187.5-187.5 187.5 83.945312 187.5 187.5zm0 0" fill="#fff"/><path d="m443.5 256c0-103.449219-83.78125-187.328125-187.191406-187.496094v374.992188c103.410156-.167969 187.191406-84.046875 187.191406-187.496094zm0 0" fill="#e9edf5"/><path d="m397 256c0 77.871094-63.128906 141-141 141s-141-63.128906-141-141 63.128906-141 141-141 141 63.128906 141 141zm0 0" fill="#f05e3a"/><path d="m397 256c0-77.769531-62.960938-140.828125-140.691406-140.996094v281.992188c77.730468-.167969 140.691406-63.226563 140.691406-140.996094zm0 0" fill="#d83a21"/><path d="m334.65625 256c0 43.441406-35.214844 78.65625-78.65625 78.65625s-78.65625-35.214844-78.65625-78.65625 35.214844-78.65625 78.65625-78.65625 78.65625 35.214844 78.65625 78.65625zm0 0" fill="#fff"/><path d="m334.65625 256c0-43.335938-35.046875-78.480469-78.347656-78.648438v157.296876c43.300781-.167969 78.347656-35.3125 78.347656-78.648438zm0 0" fill="#e9edf5"/><path d="m288 256c0 17.671875-14.328125 32-32 32s-32-14.328125-32-32 14.328125-32 32-32 32 14.328125 32 32zm0 0" fill="#f05e3a"/><path d="m288 256c0-17.570312-14.160156-31.824219-31.691406-31.992188v63.984376c17.53125-.167969 31.691406-14.421876 31.691406-31.992188zm0 0" fill="#d83a21"/></svg>